<svg width="66" height="59" viewBox="0 0 66 59" fill="none" xmlns="http://www.w3.org/2000/svg">
<path d="M38.4591 27.7912L38.4591 9L57 9L57 13.8718C57 21.4811 56.4465 27.1416 55.3396 30.8535C54.1405 34.6581 51.0503 40.0403 46.0692 47L38.1824 42.5458C42.3333 35.4005 44.7317 30.4823 45.3774 27.7912L38.4591 27.7912ZM13.2767 27.7912L13.2767 9L31.8176 9L31.8176 13.8718C31.8176 21.4811 31.2641 27.1416 30.1572 30.8535C28.9581 34.6581 25.8679 40.0403 20.8868 47L13 42.5458C17.1509 35.4005 19.5493 30.4823 20.195 27.7912L13.2767 27.7912Z" fill="url(#paint0_linear_480_192)"/>
<path fill-rule="evenodd" clip-rule="evenodd" d="M31.7576 18.0001C31.6385 21.8883 31.342 25.1521 30.8681 27.7913C30.6641 28.9279 30.4271 29.9486 30.1572 30.8536C29.9704 31.4463 29.7377 32.0773 29.4591 32.7465C27.9494 36.3734 25.0919 41.1246 20.8868 47.0001L13 42.5459C13.9689 40.878 14.8423 39.3315 15.6203 37.9063C15.8279 37.526 16.0287 37.1543 16.2227 36.7913C18.4161 32.6866 19.7402 29.6866 20.195 27.7913L13.2767 27.7913L13.2767 9.00008L31.8176 9.00008L31.8176 13.8719C31.8176 15.3184 31.7976 16.6944 31.7576 18.0001ZM66 8.7738e-05L66 13.8719C66 21.6835 65.4578 28.4175 63.9643 33.4255L63.9443 33.4924L63.9234 33.559C62.2657 38.8182 58.4377 45.1824 53.3878 52.2381L48.6827 58.8123L30.7008 48.6566C29.9085 49.8286 29.0751 51.0231 28.2054 52.2381L23.5003 58.8123L0.641618 45.9024L5.21787 38.025C5.46357 37.602 5.70067 37.1909 5.92939 36.7913L4.27672 36.7913L4.27673 8.2342e-05L66 8.7738e-05ZM38.4591 27.7913L45.3774 27.7913C44.9226 29.6866 43.5985 32.6866 41.4051 36.7913C41.2111 37.1543 41.0103 37.5259 40.8027 37.9062C40.0248 39.3314 39.1513 40.878 38.1824 42.5459L46.0692 47.0001C51.0503 40.0404 54.1405 34.6582 55.3396 30.8536C56.2361 27.8473 56.7696 23.5628 56.94 18.0001C56.98 16.6944 57 15.3184 57 13.8719L57 9.00009L38.4591 9.00009L38.4591 27.7913Z" fill="url(#paint1_linear_480_192)"/>
<defs>
<linearGradient id="paint0_linear_480_192" x1="57" y1="28" x2="43.9176" y2="27.8316" gradientUnits="userSpaceOnUse">
<stop stop-color="#2B7EDF"/>
<stop offset="1" stop-color="#2C3EA1"/>
</linearGradient>
<linearGradient id="paint1_linear_480_192" x1="66" y1="29.4062" x2="46.5669" y2="29.1661" gradientUnits="userSpaceOnUse">
<stop stop-color="#FCFDFF"/>
</linearGradient>
</defs>
</svg>
