<svg width="81" height="70" viewBox="0 0 81 70" fill="none" xmlns="http://www.w3.org/2000/svg">
<path d="M0 22C0 9.84973 9.84974 0 22 0H59C71.1503 0 81 9.84974 81 22V48C81 60.1503 71.1503 70 59 70H22C9.84974 70 0 60.1503 0 48V22Z" fill="#3496DB"/>
<path fill-rule="evenodd" clip-rule="evenodd" d="M68 35C68 35.6876 67.6252 36.2892 67.0486 36.633L34.818 55.1405C33.809 55.6849 32.627 56 31.4162 56C30.8108 56 30.2054 55.9141 29.6288 55.7708L20 53.307L49.4631 36.4038C49.982 36.146 50.3279 35.6016 50.3279 35C50.3279 34.3984 49.982 33.854 49.4631 33.5962L20 16.693L29.6288 14.2292C30.2054 14.0859 30.8108 14 31.4162 14C32.6559 14 33.809 14.3151 34.818 14.8595L67.0486 33.367C67.5964 33.6821 68 34.3124 68 35Z" fill="#0F68C9"/>
</svg>
