<svg width="198" height="97" viewBox="0 0 198 97" fill="none" xmlns="http://www.w3.org/2000/svg">
<g clip-path="url(#clip0_8_406)">
<path d="M95.3744 0.812988H0V96.1874H95.3744V0.812988Z" fill="#005EAB"/>
<path fill-rule="evenodd" clip-rule="evenodd" d="M2.9552 75.7459V62.123H14.8338C17.27 62.123 21.2199 62.4546 21.2199 65.6693C21.2199 67.2839 19.8504 68.3939 18.2359 68.7975C20.2252 69.4174 21.2199 70.5418 21.2199 72.0699C21.2199 75.3999 17.4574 75.7315 14.8338 75.7459H2.9552ZM7.30875 70.0229L8.57733 67.9182C8.8224 67.4569 9.42786 67.1397 9.97566 67.1397H14.8193C15.6843 67.1397 16.3907 66.7361 16.3907 66.073C16.3907 65.4098 15.6843 64.9918 14.8193 64.9918H7.30875V70.0373V70.0229ZM7.30875 70.0229V75.7459L8.57733 73.6412C8.8224 73.1943 9.42786 72.8772 9.97566 72.8772H14.7761C15.6699 72.8772 16.3907 72.2285 16.3907 71.45C16.3907 70.6716 15.6843 70.0229 14.7761 70.0229H7.30875ZM31.729 65.3954L25.8474 75.7459H20.7442L28.9323 62.123H34.5112L42.7138 75.7459H37.5962L36.2123 73.3241H28.6296L29.8982 71.2194C30.1433 70.7581 30.7631 70.4553 31.3109 70.4553H34.5977L31.729 65.3954ZM67.3647 65.3954L61.4686 75.7459H56.351L64.5536 62.123H70.1469L78.3494 75.7459H73.2319L71.8335 73.3241H64.2653L65.5195 71.2194C65.7789 70.7581 66.3988 70.4553 66.9322 70.4553H70.2334L67.3647 65.3954ZM50.6424 72.8772C51.6371 72.8772 52.43 72.387 52.43 71.4068V62.123H56.7979V71.8104C56.7979 74.7656 54.8806 75.7459 52.3723 75.7459H45.1068C44.559 75.7459 43.9535 75.4143 43.694 74.9675L42.4543 72.8772H50.628H50.6424ZM86.2637 72.8772C87.2439 72.8772 88.0512 72.387 88.0512 71.4068V62.123H92.4192V71.8104C92.4192 74.7656 90.5019 75.7459 87.9791 75.7459H80.7569C80.2091 75.7459 79.6036 75.4143 79.3153 74.9675L78.0467 72.8772H86.2637Z" fill="white"/>
<path fill-rule="evenodd" clip-rule="evenodd" d="M61.829 31.4752C61.829 31.8067 61.6416 32.1095 61.3677 32.268L45.7699 41.2779C45.2798 41.5518 44.7176 41.6959 44.1121 41.6959C43.8094 41.6959 43.5211 41.6527 43.2472 41.5806L38.5909 40.3841L52.8336 32.1527C53.0787 32.023 53.2517 31.7635 53.2517 31.4608C53.2517 31.158 53.0787 30.8985 52.8336 30.7688L38.5909 22.5374L43.2472 21.3409C43.5211 21.2688 43.8094 21.2256 44.1121 21.2256C44.7176 21.2256 45.2798 21.3842 45.7699 21.6436L61.3677 30.6535C61.6416 30.812 61.829 31.1148 61.829 31.4463" fill="white"/>
<path fill-rule="evenodd" clip-rule="evenodd" d="M38.9945 26.0117C42.0074 26.0117 44.4581 28.4624 44.4581 31.4753C44.4581 34.4882 42.0074 36.9388 38.9945 36.9388C35.9816 36.9388 33.5309 34.4882 33.5309 31.4753C33.5309 28.4624 35.9816 26.0117 38.9945 26.0117Z" fill="white"/>
<path d="M102.179 41.7393H113.178V44.1179H105.321V46.9866H112.486V49.221H105.321V52.6231H113.495V55.0161H102.164V41.7393H102.179ZM115.47 41.7393H118.44V55.0161H115.47V41.7393ZM122.923 50.6626C122.995 51.5564 123.211 52.2051 123.572 52.6087C123.932 53.0268 124.451 53.2286 125.143 53.2286C125.46 53.2286 125.72 53.1853 125.936 53.0989C126.152 53.0124 126.354 52.8538 126.541 52.6375C126.599 52.5655 126.657 52.4934 126.714 52.4213C126.772 52.3492 126.83 52.2627 126.887 52.1907H129.929C129.453 53.243 128.833 54.0215 128.04 54.5116C127.248 55.0017 126.253 55.2468 125.042 55.2468C123.413 55.2468 122.144 54.7999 121.207 53.9061C120.285 53.0124 119.824 51.7726 119.824 50.1869C119.824 48.6011 120.285 47.3037 121.179 46.3955C122.101 45.4873 123.37 45.0405 125.013 45.0405C126.657 45.0405 127.954 45.4873 128.833 46.3667C129.727 47.2461 130.16 48.5146 130.16 50.1869V50.4464C130.16 50.4464 130.16 50.5761 130.145 50.6626H122.894H122.923ZM122.923 48.9904H127.06C126.988 48.3849 126.786 47.9092 126.426 47.5776C126.08 47.2461 125.604 47.0875 125.013 47.0875C124.422 47.0875 123.932 47.2461 123.586 47.5776C123.226 47.9092 123.009 48.3705 122.937 48.9904H122.923ZM141.144 48.7597H138.16C138.031 48.1687 137.814 47.7362 137.512 47.4767C137.209 47.2172 136.791 47.1019 136.243 47.1019C135.479 47.1019 134.888 47.3614 134.47 47.9092C134.052 48.4426 133.85 49.2066 133.85 50.2013C133.85 50.3022 133.85 50.4031 133.85 50.504C133.85 50.6049 133.85 50.7058 133.85 50.8068C133.922 51.4122 134.095 51.9744 134.412 52.479C134.729 52.9835 135.306 53.243 136.157 53.243C136.719 53.243 137.151 53.1133 137.454 52.825C137.771 52.5511 138.002 52.0897 138.16 51.441H141.144C140.928 52.6952 140.38 53.6466 139.515 54.2954C138.65 54.9441 137.483 55.2756 136.027 55.2756C134.369 55.2756 133.086 54.8287 132.178 53.9494C131.27 53.07 130.808 51.8158 130.808 50.2013C130.808 48.5867 131.27 47.3614 132.207 46.4388C133.144 45.5306 134.427 45.0693 136.056 45.0693C137.555 45.0693 138.737 45.3864 139.616 46.0207C140.496 46.655 141.015 47.5632 141.159 48.7597H141.144ZM141.361 45.3144H142.802V42.7772H145.786V45.3144H147.603V47.1163H145.786V52.3348C145.786 52.7385 145.873 52.9979 146.017 53.1133C146.175 53.2142 146.565 53.2718 147.199 53.2718H147.603V55.218C147.487 55.218 147.386 55.218 147.257 55.218C147.141 55.218 147.012 55.218 146.882 55.218C146.694 55.2324 146.521 55.2324 146.348 55.2468C146.175 55.2468 146.002 55.2468 145.844 55.2468C144.532 55.2468 143.696 54.9873 143.336 54.4828C142.961 53.9782 142.788 53.1998 142.788 52.1762V47.1163H141.346V45.3144H141.361ZM148.785 45.3144H151.754V46.8424C152.071 46.3235 152.475 45.891 152.965 45.5738C153.455 45.2567 153.96 45.0837 154.493 45.0549H154.695C154.796 45.0549 154.883 45.0549 154.983 45.0549C155.07 45.0549 155.171 45.0693 155.286 45.0837V47.7074C155.286 47.7074 155.185 47.7074 155.128 47.7074C155.07 47.7074 155.012 47.7074 154.955 47.7074C154.839 47.7074 154.738 47.693 154.637 47.6785C154.537 47.6785 154.436 47.6785 154.32 47.6785C153.484 47.6785 152.85 47.8804 152.417 48.2984C151.985 48.7165 151.769 49.3219 151.769 50.1436V55.045H148.799V45.3288L148.785 45.3144ZM156.238 45.3144H159.207V55.0306H156.238V45.3144ZM156.238 41.7393H159.193V44.1323H156.238V41.7393ZM170.956 48.7597H167.972C167.842 48.1687 167.612 47.7362 167.309 47.4767C167.006 47.2172 166.574 47.1019 166.04 47.1019C165.276 47.1019 164.685 47.3614 164.267 47.9092C163.849 48.4426 163.633 49.2066 163.633 50.2013C163.633 50.3022 163.633 50.4031 163.633 50.504C163.633 50.6049 163.633 50.7058 163.633 50.8068C163.691 51.4122 163.878 51.9744 164.195 52.479C164.512 52.9835 165.089 53.243 165.939 53.243C166.502 53.243 166.934 53.1133 167.237 52.825C167.554 52.5511 167.785 52.0897 167.943 51.441H170.927C170.711 52.6952 170.163 53.6466 169.298 54.2954C168.433 54.9441 167.266 55.2756 165.81 55.2756C164.152 55.2756 162.869 54.8287 161.961 53.9494C161.038 53.07 160.591 51.8158 160.591 50.2013C160.591 48.5867 161.052 47.3614 161.99 46.4388C162.927 45.5306 164.21 45.0693 165.839 45.0693C167.338 45.0693 168.52 45.3864 169.399 46.0207C170.279 46.655 170.798 47.5632 170.942 48.7597H170.956ZM171.893 48.4282C171.951 47.2749 172.383 46.4244 173.176 45.8766C173.969 45.3288 175.151 45.0549 176.737 45.0549C177.876 45.0549 178.813 45.1846 179.562 45.4441C180.312 45.6892 180.831 46.0928 181.134 46.6118V46.6406C181.278 46.8713 181.379 47.1307 181.422 47.4046C181.465 47.6785 181.494 48.0966 181.494 48.6444V53.5313C181.494 53.8629 181.537 54.1656 181.624 54.3963C181.71 54.6269 181.854 54.8432 182.042 55.0306H179.014C178.942 54.9296 178.885 54.8432 178.827 54.7711C178.784 54.699 178.741 54.6269 178.697 54.5548C178.64 54.4395 178.596 54.3242 178.568 54.1944C178.539 54.0647 178.539 53.9205 178.539 53.7331C178.351 53.935 178.164 54.0935 177.991 54.2377C177.818 54.3819 177.631 54.5116 177.458 54.6269C177.083 54.872 176.694 55.0306 176.29 55.1315C175.886 55.218 175.396 55.2612 174.834 55.2612C173.839 55.2612 173.046 55.0017 172.441 54.4683C171.835 53.935 171.533 53.243 171.533 52.3781C171.533 51.5131 171.778 50.8788 172.253 50.3887C172.729 49.8986 173.493 49.5526 174.517 49.3652C175.05 49.2643 175.641 49.1778 176.304 49.0913C176.953 49.0048 177.674 48.9327 178.467 48.875C178.467 48.2984 178.38 47.8515 178.193 47.5488C178.005 47.2605 177.53 47.1019 176.737 47.1019C176.088 47.1019 175.598 47.2028 175.266 47.4046C174.949 47.6065 174.733 47.9524 174.647 48.4282H171.879H171.893ZM178.568 50.4896C178.308 50.5184 178.063 50.5617 177.861 50.5761C177.659 50.6049 177.472 50.6193 177.328 50.6338C177.227 50.6626 177.14 50.677 177.068 50.6914C176.996 50.6914 176.91 50.7203 176.823 50.7347C176.751 50.7347 176.679 50.7635 176.607 50.7635C176.549 50.7779 176.477 50.7923 176.405 50.7923C175.699 50.9077 175.209 51.0806 174.935 51.2825C174.661 51.4843 174.531 51.7726 174.531 52.1474C174.531 52.479 174.675 52.7385 174.964 52.9403C175.252 53.1421 175.627 53.243 176.088 53.243C177.112 53.243 177.804 52.9691 178.106 52.4357C178.423 51.9023 178.582 51.2536 178.582 50.4896H178.568ZM183.253 41.7393H186.222V55.0161H183.253V41.7393ZM187.635 51.8591H190.619C190.749 52.3636 190.994 52.7096 191.326 52.9259C191.657 53.1421 192.205 53.2286 192.954 53.2286C193.56 53.2286 194.05 53.1421 194.396 52.9691C194.756 52.7961 194.929 52.5799 194.929 52.3204C194.929 52.1907 194.901 52.0897 194.872 52.0033C194.829 51.9168 194.728 51.8447 194.583 51.7726C194.483 51.7149 194.367 51.6717 194.209 51.614C194.05 51.5564 193.863 51.4987 193.632 51.441L190.345 50.4752C189.567 50.2445 188.976 49.9418 188.587 49.5526C188.197 49.1778 187.995 48.7165 187.995 48.1831C187.995 47.2605 188.442 46.5109 189.336 45.9198C190.23 45.3432 191.383 45.0405 192.81 45.0405C193.791 45.0405 194.641 45.1846 195.362 45.4729C196.083 45.7612 196.63 46.1649 197.005 46.6983C197.049 46.7415 197.077 46.7848 197.106 46.828C197.121 46.8568 197.149 46.9145 197.178 46.9577C197.25 47.0875 197.322 47.2316 197.366 47.3758C197.423 47.52 197.467 47.7074 197.51 47.9236C197.51 47.9669 197.539 48.0245 197.539 48.0822C197.553 48.1398 197.568 48.1975 197.582 48.2696H194.684C194.598 47.8371 194.425 47.52 194.137 47.347C193.848 47.174 193.416 47.0875 192.81 47.0875C192.205 47.0875 191.758 47.174 191.412 47.3181C191.08 47.4623 190.907 47.6785 190.907 47.938C190.907 48.0533 190.936 48.1398 191.023 48.2263C191.109 48.3128 191.225 48.3849 191.369 48.4282L195.996 49.74C196.602 49.913 197.092 50.2013 197.467 50.6193C197.841 51.0374 198.029 51.4987 198.029 52.0321V52.1474C198.029 52.1474 198.029 52.2195 198.014 52.2627C197.957 52.8394 197.668 53.4016 197.135 53.9205C196.616 54.4395 195.982 54.7999 195.261 55.0161C195.232 55.0161 195.218 55.0306 195.189 55.0306H195.102C194.771 55.1171 194.439 55.1747 194.079 55.218C193.719 55.2468 193.315 55.2756 192.882 55.2756C191.239 55.2756 189.956 54.9873 189.077 54.4107C188.197 53.8341 187.722 52.9835 187.678 51.8879L187.635 51.8591Z" fill="#005EAB"/>
</g>
<defs>
<clipPath id="clip0_8_406">
<rect width="198" height="95.3744" fill="white" transform="translate(0 0.812988)"/>
</clipPath>
</defs>
</svg>
